<?xml version="1.0" encoding="utf-8"?>
<!-- Generator: Adobe Illustrator 23.0.3, SVG Export Plug-In . SVG Version: 6.00 Build 0)  -->
<svg version="1.1" id="Icons" xmlns="http://www.w3.org/2000/svg" xmlns:xlink="http://www.w3.org/1999/xlink" x="0px" y="0px"
	 viewBox="0 0 32 32" style="enable-background:new 0 0 32 32;" xml:space="preserve">
<style type="text/css">
	.st0{fill:none;stroke:#000000;stroke-width:2;stroke-linecap:round;stroke-linejoin:round;stroke-miterlimit:10;}
</style>
<g>
	<path d="M14.5,25h-7C6.1,25,5,26.1,5,27.5S6.1,30,7.5,30h7c1.4,0,2.5-1.1,2.5-2.5S15.9,25,14.5,25z"/>
	<path d="M17,16c-1.7,0-3,1.3-3,3s1.3,3,3,3s3-1.3,3-3S18.7,16,17,16z"/>
	<path d="M28,2h-6h-6h-6H4C3.4,2,3,2.4,3,3v3v3c0,0.6,0.4,1,1,1h5v2c0,0.6,0.4,1,1,1h6c0.6,0,1-0.4,1-1v-2h4v2v3c0,0.6,0.4,1,1,1h6
		c0.6,0,1-0.4,1-1v-3V9V6V3C29,2.4,28.6,2,28,2z M27,8h-4V7h4V8z M23,10h4v1h-4V10z M27,5h-4V4h4V5z M21,5h-4V4h4V5z M11,8V7h4v1H11
		z M15,5h-4V4h4V5z M5,4h4v1H5V4z M5,7h4v1H5V7z M15,11h-4v-1h4V11z M17,7h4v1h-4V7z M27,14h-4v-1h4V14z"/>
</g>
</svg>
